<svg width="157" height="45" viewBox="0 0 157 45" fill="none" xmlns="http://www.w3.org/2000/svg">
<g clip-path="url(#clip0_61_721)">
<mask id="mask0_61_721" style="mask-type:luminance" maskUnits="userSpaceOnUse" x="0" y="0" width="157" height="45">
<path d="M157 0H0V45H157V0Z" fill="white"/>
</mask>
<g mask="url(#mask0_61_721)">
<path d="M13.1975 38.675C10.7375 38.675 8.5775 38.1425 6.7175 37.0775C4.8575 36.0125 3.4025 34.535 2.3525 32.645C1.3175 30.755 0.8 28.58 0.8 26.12C0.8 23.465 1.31 21.1625 2.33 19.2125C3.35 17.2475 4.7675 15.725 6.5825 14.645C8.3975 13.565 10.4975 13.025 12.8825 13.025C15.4025 13.025 17.54 13.6175 19.295 14.8025C21.065 15.9725 22.3775 17.63 23.2325 19.775C24.0875 21.92 24.41 24.4475 24.2 27.3575H18.8225V25.3775C18.8075 22.7375 18.3425 20.81 17.4275 19.595C16.5125 18.38 15.0725 17.7725 13.1075 17.7725C10.8875 17.7725 9.2375 18.4625 8.1575 19.8425C7.0775 21.2075 6.5375 23.21 6.5375 25.85C6.5375 28.31 7.0775 30.215 8.1575 31.565C9.2375 32.915 10.8125 33.59 12.8825 33.59C14.2175 33.59 15.365 33.2975 16.325 32.7125C17.3 32.1125 18.05 31.25 18.575 30.125L23.93 31.745C23 33.935 21.56 35.6375 19.61 36.8525C17.675 38.0675 15.5375 38.675 13.1975 38.675ZM4.8275 27.3575V23.2625H21.545V27.3575H4.8275ZM38.9628 38.675C36.7278 38.675 34.7778 38.1125 33.1128 36.9875C31.4478 35.8625 30.1578 34.3325 29.2428 32.3975C28.3278 30.4625 27.8703 28.28 27.8703 25.85C27.8703 23.39 28.3278 21.2 29.2428 19.28C30.1728 17.345 31.4853 15.8225 33.1803 14.7125C34.8753 13.5875 36.8703 13.025 39.1653 13.025C41.4753 13.025 43.4103 13.5875 44.9703 14.7125C46.5453 15.8225 47.7378 17.345 48.5478 19.28C49.3578 21.215 49.7628 23.405 49.7628 25.85C49.7628 28.265 49.3578 30.4475 48.5478 32.3975C47.7378 34.3325 46.5303 35.8625 44.9253 36.9875C43.3203 38.1125 41.3328 38.675 38.9628 38.675ZM39.7953 33.815C41.2503 33.815 42.4203 33.485 43.3053 32.825C44.2053 32.15 44.8578 31.2125 45.2628 30.0125C45.6828 28.8125 45.8928 27.425 45.8928 25.85C45.8928 24.26 45.6828 22.8725 45.2628 21.6875C44.8578 20.4875 44.2203 19.5575 43.3503 18.8975C42.4803 18.2225 41.3553 17.885 39.9753 17.885C38.5203 17.885 37.3203 18.245 36.3753 18.965C35.4303 19.67 34.7328 20.63 34.2828 21.845C33.8328 23.045 33.6078 24.38 33.6078 25.85C33.6078 27.335 33.8253 28.685 34.2603 29.9C34.7103 31.1 35.3928 32.0525 36.3078 32.7575C37.2228 33.4625 38.3853 33.815 39.7953 33.815ZM45.8928 38V20.945H45.2178V5.6H50.6853V38H45.8928ZM68.0413 38.675C65.5813 38.675 63.4213 38.1425 61.5613 37.0775C59.7013 36.0125 58.2463 34.535 57.1963 32.645C56.1613 30.755 55.6438 28.58 55.6438 26.12C55.6438 23.465 56.1538 21.1625 57.1738 19.2125C58.1938 17.2475 59.6113 15.725 61.4263 14.645C63.2413 13.565 65.3413 13.025 67.7263 13.025C70.2463 13.025 72.3838 13.6175 74.1388 14.8025C75.9088 15.9725 77.2213 17.63 78.0763 19.775C78.9313 21.92 79.2538 24.4475 79.0438 27.3575H73.6663V25.3775C73.6513 22.7375 73.1863 20.81 72.2713 19.595C71.3563 18.38 69.9163 17.7725 67.9513 17.7725C65.7313 17.7725 64.0813 18.4625 63.0013 19.8425C61.9213 21.2075 61.3813 23.21 61.3813 25.85C61.3813 28.31 61.9213 30.215 63.0013 31.565C64.0813 32.915 65.6563 33.59 67.7263 33.59C69.0613 33.59 70.2088 33.2975 71.1688 32.7125C72.1438 32.1125 72.8938 31.25 73.4188 30.125L78.7738 31.745C77.8438 33.935 76.4038 35.6375 74.4538 36.8525C72.5188 38.0675 70.3813 38.675 68.0413 38.675ZM59.6713 27.3575V23.2625H76.3888V27.3575H59.6713ZM100.212 38V26.3C100.212 25.535 100.16 24.6875 100.055 23.7575C99.9499 22.8275 99.7024 21.935 99.3124 21.08C98.9374 20.21 98.3674 19.4975 97.6024 18.9425C96.8524 18.3875 95.8324 18.11 94.5424 18.11C93.8524 18.11 93.1699 18.2225 92.4949 18.4475C91.8199 18.6725 91.2049 19.0625 90.6499 19.6175C90.1099 20.1575 89.6749 20.9075 89.3449 21.8675C89.0149 22.8125 88.8499 24.0275 88.8499 25.5125L85.6324 24.14C85.6324 22.07 86.0299 20.195 86.8249 18.515C87.6349 16.835 88.8199 15.5 90.3799 14.51C91.9399 13.505 93.8599 13.0025 96.1399 13.0025C97.9399 13.0025 99.4249 13.3025 100.595 13.9025C101.765 14.5025 102.695 15.2675 103.385 16.1975C104.075 17.1275 104.585 18.1175 104.915 19.1675C105.245 20.2175 105.455 21.215 105.545 22.16C105.65 23.09 105.702 23.8475 105.702 24.4325V38H100.212ZM83.3599 38V13.7H88.1974V21.2375H88.8499V38H83.3599ZM125.816 38C124.211 38.3 122.636 38.4275 121.091 38.3825C119.561 38.3525 118.189 38.075 116.974 37.55C115.759 37.01 114.836 36.1625 114.206 35.0075C113.651 33.9575 113.359 32.885 113.329 31.79C113.299 30.695 113.284 29.4575 113.284 28.0775V6.95H118.684V27.7625C118.684 28.7375 118.691 29.5925 118.706 30.3275C118.736 31.0625 118.894 31.6625 119.179 32.1275C119.719 33.0275 120.581 33.53 121.766 33.635C122.951 33.74 124.301 33.68 125.816 33.455V38ZM108.874 17.9525V13.7H125.816V17.9525H108.874ZM140.154 38.6975C138.354 38.6975 136.869 38.3975 135.699 37.7975C134.529 37.1975 133.599 36.4325 132.909 35.5025C132.219 34.5725 131.709 33.5825 131.379 32.5325C131.049 31.4825 130.832 30.4925 130.727 29.5625C130.637 28.6175 130.592 27.8525 130.592 27.2675V13.7H136.082V25.4C136.082 26.15 136.134 26.9975 136.239 27.9425C136.344 28.8725 136.584 29.7725 136.959 30.6425C137.349 31.4975 137.919 32.2025 138.669 32.7575C139.434 33.3125 140.462 33.59 141.752 33.59C142.442 33.59 143.124 33.4775 143.799 33.2525C144.474 33.0275 145.082 32.645 145.622 32.105C146.177 31.55 146.619 30.7925 146.949 29.8325C147.279 28.8725 147.444 27.6575 147.444 26.1875L150.662 27.56C150.662 29.63 150.257 31.505 149.447 33.185C148.652 34.865 147.474 36.2075 145.914 37.2125C144.354 38.2025 142.434 38.6975 140.154 38.6975ZM148.097 38V30.4625H147.444V13.7H152.889V38H148.097Z" fill="#5386C5"/>
</g>
</g>
<defs>
<clipPath id="clip0_61_721">
<rect width="157" height="45" fill="white"/>
</clipPath>
</defs>
</svg>
